<svg width="25" height="20" viewBox="0 0 25 20" fill="none" xmlns="http://www.w3.org/2000/svg">
<path d="M1.25 0H23.75C24.0815 0 24.3995 0.117063 24.6339 0.325437C24.8683 0.533811 25 0.816426 25 1.11111V18.8889C25 19.1836 24.8683 19.4662 24.6339 19.6746C24.3995 19.8829 24.0815 20 23.75 20H1.25C0.918479 20 0.600537 19.8829 0.366116 19.6746C0.131696 19.4662 0 19.1836 0 18.8889V1.11111C0 0.816426 0.131696 0.533811 0.366116 0.325437C0.600537 0.117063 0.918479 0 1.25 0V0ZM22.5 4.70889L12.59 12.5978L2.5 4.68444V17.7778H22.5V4.70889ZM3.13875 2.22222L12.5762 9.62444L21.8775 2.22222H3.13875Z" fill="white"/>
</svg>
