<svg width="337" height="50" viewBox="0 0 337 50" fill="none" xmlns="http://www.w3.org/2000/svg">
<rect y="3.06976" width="10.256" height="40.9302" rx="5.12801" fill="#E12727"/>
<rect x="41.0242" y="3.06976" width="10.256" height="40.9302" rx="5.12801" fill="#E12727"/>
<rect x="82.0483" y="3.06976" width="10.256" height="40.9302" rx="5.12801" fill="#E12727"/>
<rect x="20.512" width="10.256" height="40.9302" rx="5.12801" fill="#85210B"/>
<rect x="61.5361" width="10.256" height="40.9302" rx="5.12801" fill="#85200B"/>
<path d="M132.178 25.8747C132.178 27.7307 131.538 29.2774 130.258 30.5147C129 31.7307 127.069 32.3387 124.466 32.3387H120.178V41.6507H117.266V19.3467H124.466C126.984 19.3467 128.893 19.9547 130.194 21.1707C131.517 22.3867 132.178 23.9547 132.178 25.8747ZM124.466 29.9387C126.088 29.9387 127.282 29.5867 128.05 28.8827C128.818 28.1787 129.202 27.176 129.202 25.8747C129.202 23.1227 127.624 21.7467 124.466 21.7467H120.178V29.9387H124.466ZM138.709 26.9627C139.221 25.96 139.947 25.1814 140.885 24.6267C141.845 24.072 143.008 23.7947 144.373 23.7947V26.8027H143.605C140.341 26.8027 138.709 28.5734 138.709 32.1147V41.6507H135.797V24.1147H138.709V26.9627ZM155.383 41.9387C153.74 41.9387 152.247 41.5654 150.903 40.8187C149.58 40.072 148.535 39.016 147.767 37.6507C147.02 36.264 146.647 34.664 146.647 32.8507C146.647 31.0587 147.031 29.48 147.799 28.1147C148.588 26.728 149.655 25.672 150.999 24.9467C152.343 24.2 153.847 23.8267 155.511 23.8267C157.175 23.8267 158.679 24.2 160.023 24.9467C161.367 25.672 162.423 26.7174 163.191 28.0827C163.98 29.448 164.375 31.0374 164.375 32.8507C164.375 34.664 163.97 36.264 163.159 37.6507C162.37 39.016 161.292 40.072 159.927 40.8187C158.562 41.5654 157.047 41.9387 155.383 41.9387ZM155.383 39.3787C156.428 39.3787 157.41 39.1334 158.327 38.6427C159.244 38.152 159.98 37.416 160.535 36.4347C161.111 35.4534 161.399 34.2587 161.399 32.8507C161.399 31.4427 161.122 30.248 160.567 29.2667C160.012 28.2854 159.287 27.56 158.391 27.0907C157.495 26.6 156.524 26.3547 155.479 26.3547C154.412 26.3547 153.431 26.6 152.535 27.0907C151.66 27.56 150.956 28.2854 150.423 29.2667C149.89 30.248 149.623 31.4427 149.623 32.8507C149.623 34.28 149.879 35.4854 150.391 36.4667C150.924 37.448 151.628 38.184 152.503 38.6747C153.378 39.144 154.338 39.3787 155.383 39.3787ZM181.388 36.6907H171.66L169.868 41.6507H166.796L174.86 19.4747H178.22L186.252 41.6507H183.18L181.388 36.6907ZM180.556 34.3227L176.524 23.0587L172.492 34.3227H180.556ZM188.678 32.8507C188.678 31.0374 189.041 29.4587 189.766 28.1147C190.492 26.7494 191.494 25.6934 192.774 24.9467C194.076 24.2 195.558 23.8267 197.222 23.8267C199.377 23.8267 201.148 24.3494 202.534 25.3947C203.942 26.44 204.87 27.8907 205.318 29.7467H202.182C201.884 28.68 201.297 27.8374 200.422 27.2187C199.569 26.6 198.502 26.2907 197.222 26.2907C195.558 26.2907 194.214 26.8667 193.19 28.0187C192.166 29.1494 191.654 30.76 191.654 32.8507C191.654 34.9627 192.166 36.5947 193.19 37.7467C194.214 38.8987 195.558 39.4747 197.222 39.4747C198.502 39.4747 199.569 39.176 200.422 38.5787C201.276 37.9814 201.862 37.128 202.182 36.0187H205.318C204.849 37.8107 203.91 39.2507 202.502 40.3387C201.094 41.4054 199.334 41.9387 197.222 41.9387C195.558 41.9387 194.076 41.5654 192.774 40.8187C191.494 40.072 190.492 39.016 189.766 37.6507C189.041 36.2854 188.678 34.6854 188.678 32.8507ZM208.116 32.8187C208.116 31.0267 208.478 29.4587 209.204 28.1147C209.929 26.7494 210.921 25.6934 212.18 24.9467C213.46 24.2 214.878 23.8267 216.436 23.8267C217.972 23.8267 219.305 24.1574 220.436 24.8187C221.566 25.48 222.409 26.312 222.964 27.3147V24.1147H225.908V41.6507H222.964V38.3867C222.388 39.4107 221.524 40.264 220.372 40.9467C219.241 41.608 217.918 41.9387 216.404 41.9387C214.846 41.9387 213.438 41.5547 212.18 40.7867C210.921 40.0187 209.929 38.9414 209.204 37.5547C208.478 36.168 208.116 34.5894 208.116 32.8187ZM222.964 32.8507C222.964 31.528 222.697 30.376 222.164 29.3947C221.63 28.4134 220.905 27.6667 219.988 27.1547C219.092 26.6214 218.1 26.3547 217.012 26.3547C215.924 26.3547 214.932 26.6107 214.036 27.1227C213.14 27.6347 212.425 28.3814 211.892 29.3627C211.358 30.344 211.092 31.496 211.092 32.8187C211.092 34.1627 211.358 35.336 211.892 36.3387C212.425 37.32 213.14 38.0774 214.036 38.6107C214.932 39.1227 215.924 39.3787 217.012 39.3787C218.1 39.3787 219.092 39.1227 219.988 38.6107C220.905 38.0774 221.63 37.32 222.164 36.3387C222.697 35.336 222.964 34.1734 222.964 32.8507ZM229.741 32.8187C229.741 31.0267 230.103 29.4587 230.829 28.1147C231.554 26.7494 232.546 25.6934 233.805 24.9467C235.085 24.2 236.514 23.8267 238.093 23.8267C239.458 23.8267 240.727 24.1467 241.901 24.7867C243.074 25.4054 243.97 26.2267 244.589 27.2507V17.9707H247.533V41.6507H244.589V38.3547C244.013 39.4 243.159 40.264 242.029 40.9467C240.898 41.608 239.575 41.9387 238.061 41.9387C236.503 41.9387 235.085 41.5547 233.805 40.7867C232.546 40.0187 231.554 38.9414 230.829 37.5547C230.103 36.168 229.741 34.5894 229.741 32.8187ZM244.589 32.8507C244.589 31.528 244.322 30.376 243.789 29.3947C243.255 28.4134 242.53 27.6667 241.613 27.1547C240.717 26.6214 239.725 26.3547 238.637 26.3547C237.549 26.3547 236.557 26.6107 235.661 27.1227C234.765 27.6347 234.05 28.3814 233.517 29.3627C232.983 30.344 232.717 31.496 232.717 32.8187C232.717 34.1627 232.983 35.336 233.517 36.3387C234.05 37.32 234.765 38.0774 235.661 38.6107C236.557 39.1227 237.549 39.3787 238.637 39.3787C239.725 39.3787 240.717 39.1227 241.613 38.6107C242.53 38.0774 243.255 37.32 243.789 36.3387C244.322 35.336 244.589 34.1734 244.589 32.8507ZM268.454 32.2107C268.454 32.7654 268.422 33.352 268.358 33.9707H254.342C254.448 35.6987 255.035 37.0534 256.102 38.0347C257.19 38.9947 258.502 39.4747 260.038 39.4747C261.296 39.4747 262.342 39.1867 263.174 38.6107C264.027 38.0134 264.624 37.224 264.966 36.2427H268.102C267.632 37.928 266.694 39.304 265.286 40.3707C263.878 41.416 262.128 41.9387 260.038 41.9387C258.374 41.9387 256.88 41.5654 255.558 40.8187C254.256 40.072 253.232 39.016 252.486 37.6507C251.739 36.264 251.366 34.664 251.366 32.8507C251.366 31.0374 251.728 29.448 252.454 28.0827C253.179 26.7174 254.192 25.672 255.494 24.9467C256.816 24.2 258.331 23.8267 260.038 23.8267C261.702 23.8267 263.174 24.1894 264.454 24.9147C265.734 25.64 266.715 26.6427 267.398 27.9227C268.102 29.1814 268.454 30.6107 268.454 32.2107ZM265.446 31.6027C265.446 30.4934 265.2 29.544 264.71 28.7547C264.219 27.944 263.547 27.336 262.694 26.9307C261.862 26.504 260.934 26.2907 259.91 26.2907C258.438 26.2907 257.179 26.76 256.134 27.6987C255.11 28.6374 254.523 29.9387 254.374 31.6027H265.446ZM293.385 23.7947C294.751 23.7947 295.967 24.0827 297.033 24.6587C298.1 25.2134 298.943 26.056 299.561 27.1867C300.18 28.3174 300.489 29.6934 300.489 31.3147V41.6507H297.609V31.7307C297.609 29.9814 297.172 28.648 296.297 27.7307C295.444 26.792 294.281 26.3227 292.809 26.3227C291.295 26.3227 290.089 26.8134 289.193 27.7947C288.297 28.7547 287.849 30.152 287.849 31.9867V41.6507H284.969V31.7307C284.969 29.9814 284.532 28.648 283.657 27.7307C282.804 26.792 281.641 26.3227 280.169 26.3227C278.655 26.3227 277.449 26.8134 276.553 27.7947C275.657 28.7547 275.209 30.152 275.209 31.9867V41.6507H272.297V24.1147H275.209V26.6427C275.785 25.7254 276.553 25.0214 277.513 24.5307C278.495 24.04 279.572 23.7947 280.745 23.7947C282.217 23.7947 283.519 24.1254 284.649 24.7867C285.78 25.448 286.623 26.4187 287.177 27.6987C287.668 26.4614 288.479 25.5014 289.609 24.8187C290.74 24.136 291.999 23.7947 293.385 23.7947ZM320.37 24.1147L309.81 49.9067H306.802L310.258 41.4587L303.186 24.1147H306.418L311.922 38.3227L317.362 24.1147H320.37Z" fill="black"/>
</svg>
