<svg width="25" height="20" viewBox="0 0 25 20" fill="none" xmlns="http://www.w3.org/2000/svg">
<path d="M22.2222 8H23.6111C23.9795 8 24.3327 8.10536 24.5932 8.29289C24.8537 8.48043 25 8.73478 25 9V19C25 19.2652 24.8537 19.5196 24.5932 19.7071C24.3327 19.8946 23.9795 20 23.6111 20H1.38889C1.02053 20 0.667263 19.8946 0.406796 19.7071C0.146329 19.5196 0 19.2652 0 19V9C0 8.73478 0.146329 8.48043 0.406796 8.29289C0.667263 8.10536 1.02053 8 1.38889 8H2.77778V7C2.77778 6.08075 3.02925 5.1705 3.51784 4.32122C4.00642 3.47194 4.72256 2.70026 5.62535 2.05025C6.52814 1.40024 7.59991 0.884626 8.77947 0.532843C9.95902 0.18106 11.2233 0 12.5 0C13.7767 0 15.041 0.18106 16.2205 0.532843C17.4001 0.884626 18.4719 1.40024 19.3746 2.05025C20.2774 2.70026 20.9936 3.47194 21.4822 4.32122C21.9707 5.1705 22.2222 6.08075 22.2222 7V8ZM2.77778 10V18H22.2222V10H2.77778ZM11.1111 12H13.8889V16H11.1111V12ZM19.4444 8V7C19.4444 5.67392 18.7128 4.40215 17.4105 3.46447C16.1081 2.52678 14.3418 2 12.5 2C10.6582 2 8.89187 2.52678 7.58954 3.46447C6.2872 4.40215 5.55556 5.67392 5.55556 7V8H19.4444Z" fill="white"/>
</svg>
